# xmcd
#
# Track frame offsets:
#	150
#	33240
#	49300
#	69065
#	83470
#	101352
#	140855
#	155585
#	175547
#	191932
#	204890
#	215165
#	234052
#	246587
#
# Disc length: 3768
#
# Revision: 5
# Processed by: cddbd v1.5.1PL0 Copyright (c) Steve Scherf et al.
# Submitted via: CDex 1.51
# Normalized: r3:TDELIM( - ),TSWAP
#
DISCID=bb0eb60e
DTITLE=Various Artist - Playing The Blues
DYEAR=1991
DGENRE=Blues
TTITLE0=Albert King - I'll Play The Blues For You
TTITLE1=John Mayall's Bluesbreakers - Oh Pretty Woman
TTITLE2=Robert Cray - Right Next Door
TTITLE3=Stevie Ray Vaughan and Double Trouble - Look At Little Sister
TTITLE4=Muddy Waters - Mannish Boy
TTITLE5=The Allman Brothers Band - Stormy Monday
TTITLE6=Chicken Shack - I'd Rather Go Blind
TTITLE7=The Vaughan Brothers - Good Texan
TTITLE8=John Mayall's Bluesbreakers - All Your Love
TTITLE9=Jimmy Reed - Shame Shame Shame
TTITLE10=John Lee Hooker - Dimples
TTITLE11=Savoy Brown - Train To Nowhere
TTITLE12=Johnny Winter - Good Morning Little Schoolgirl
TTITLE13=Eric Clapton - Double Trouble
EXTD=YEAR: 1991
EXTT0=
EXTT1=
EXTT2=
EXTT3=
EXTT4=
EXTT5=
EXTT6=
EXTT7=
EXTT8=
EXTT9=
EXTT10=
EXTT11=
EXTT12=
EXTT13=
PLAYORDER=
